<svg xmlns="http://www.w3.org/2000/svg" version="1.1" xmlns:xlink="http://www.w3.org/1999/xlink" xmlns:svgjs="http://svgjs.dev/svgjs" width="2000" height="1500" viewBox="0 0 2000 1500"><rect width="2000" height="1500" fill="#000000"></rect><g transform="matrix(0.75,0,0,0.75,249.090909090909,282.7536437246964)"><svg viewBox="0 0 396 247" data-background-color="#000000" preserveAspectRatio="xMidYMid meet" height="1247" width="2000" xmlns="http://www.w3.org/2000/svg" xmlns:xlink="http://www.w3.org/1999/xlink"><g id="tight-bounds" transform="matrix(1,0,0,1,0.2400000000000091,-0.09999999999999432)"><svg viewBox="0 0 395.52 247.2" height="247.2" width="395.52"><rect width="395.52" height="247.20000000000005" fill="url(#9b0369da-2e2b-4e9b-84d7-368a12c1c48b)" mask="url(#c6ac7c65-3b18-4319-b20f-4374252e1b2e)" data-fill-palette-color="tertiary"></rect><g><svg></svg></g><g><svg viewBox="0 0 395.52 247.2" height="247.2" width="395.52"><g transform="matrix(1,0,0,1,75.54432,77.9829499222395)"><svg viewBox="0 0 244.43135999999998 91.23410015552099" height="91.23410015552099" width="244.43135999999998"><g><svg viewBox="0 0 244.43135999999998 91.23410015552099" height="91.23410015552099" width="244.43135999999998"><g><svg viewBox="0 0 244.43135999999998 91.23410015552099" height="91.23410015552099" width="244.43135999999998"><g><svg viewBox="0 0 244.43135999999998 91.23410015552099" height="91.23410015552099" width="244.43135999999998"><g id="textblocktransform"><svg viewBox="0 0 244.43135999999998 91.23410015552099" height="91.23410015552099" width="244.43135999999998" id="textblock"><g><svg viewBox="0 0 244.43135999999998 91.23410015552099" height="91.23410015552099" width="244.43135999999998"><g transform="matrix(1,0,0,1,0,0)"><svg width="244.43135999999998" viewBox="3.45 -36 96.45 36" height="91.23410015552099" data-palette-color="url(#df147ba4-3400-4ad7-82df-95959c877834)"></svg></g></svg></g></svg></g></svg></g></svg></g></svg></g></svg></g><g><path d="M245.816 0c68.262 0 123.6 55.338 123.6 123.6 0 68.262-55.338 123.6-123.6 123.6-47.95 0-89.523-27.305-110.019-67.214l4.647 0c20.14 37.558 59.773 63.1 105.372 63.1 65.99 0 119.486-53.496 119.486-119.486 0-65.99-53.496-119.486-119.486-119.486-45.599 0-85.232 25.542-105.372 63.1h-4.647c20.495-39.909 62.068-67.214 110.019-67.214z" fill="url(#9b0369da-2e2b-4e9b-84d7-368a12c1c48b)" stroke="transparent" data-fill-palette-color="tertiary"></path></g></svg></g><defs></defs><mask id="aecd677a-c0c6-4213-9ced-f3d959e739f4"><g id="SvgjsG2315"><svg viewBox="0 0 395.52 247.2" height="247.2" width="395.52"><g><svg></svg></g><g><svg viewBox="0 0 395.52 247.2" height="247.2" width="395.52"><g transform="matrix(1,0,0,1,75.54432,77.9829499222395)"><svg viewBox="0 0 244.43135999999998 91.23410015552099" height="91.23410015552099" width="244.43135999999998"><g><svg viewBox="0 0 244.43135999999998 91.23410015552099" height="91.23410015552099" width="244.43135999999998"><g><svg viewBox="0 0 244.43135999999998 91.23410015552099" height="91.23410015552099" width="244.43135999999998"><g><svg viewBox="0 0 244.43135999999998 91.23410015552099" height="91.23410015552099" width="244.43135999999998"><g id="SvgjsG2314"><svg viewBox="0 0 244.43135999999998 91.23410015552099" height="91.23410015552099" width="244.43135999999998" id="SvgjsSvg2313"><g><svg viewBox="0 0 244.43135999999998 91.23410015552099" height="91.23410015552099" width="244.43135999999998"><g transform="matrix(1,0,0,1,0,0)"><svg width="244.43135999999998" viewBox="3.45 -36 96.45 36" height="91.23410015552099" data-palette-color="url(#df147ba4-3400-4ad7-82df-95959c877834)"><path d="M18.5-27L14.75-27 14.75-20.6 18.5-20.6Q19.8-20.6 20.25-21.28 20.7-21.95 20.7-22.95L20.7-22.95 20.7-24.65Q20.7-25.65 20.25-26.33 19.8-27 18.5-27L18.5-27ZM12.95 0L12.95 0 5.25 0Q4.3 0 3.88-0.43 3.45-0.85 3.45-1.8L3.45-1.8 3.45-34.2Q3.45-35.15 3.88-35.58 4.3-36 5.25-36L5.25-36 21.9-36Q27.5-36 29.63-33.68 31.75-31.35 31.75-27.65L31.75-27.65 31.75-25.35Q31.75-23.25 31.13-21.78 30.5-20.3 28.95-19.65L28.95-19.65Q31.65-19.35 33.33-17.45 35-15.55 35-12.4L35-12.4 35-1.8Q35-0.85 34.58-0.43 34.15 0 33.2 0L33.2 0 25.45 0Q24.5 0 24.08-0.43 23.65-0.85 23.65-1.8L23.65-1.8 23.65-9.45Q23.65-10.55 23.23-11.08 22.8-11.6 21.75-11.6L21.75-11.6 14.75-11.6 14.75-1.8Q14.75-0.85 14.33-0.43 13.9 0 12.95 0ZM57.3 0L57.3 0 41.5 0Q40.55 0 40.12-0.43 39.7-0.85 39.7-1.8L39.7-1.8 39.7-7.65Q39.7-8.6 40.12-9.03 40.55-9.45 41.5-9.45L41.5-9.45 54.95-9.45Q55.6-9.45 55.92-9.88 56.25-10.3 56.25-10.9L56.25-10.9Q56.25-11.75 55.92-12.15 55.6-12.55 54.95-12.6L54.95-12.6 47.45-13.65Q43.95-14.15 41.82-15.95 39.7-17.75 39.7-21.95L39.7-21.95 39.7-27.2Q39.7-31.45 42.45-33.73 45.2-36 50.05-36L50.05-36 64.05-36Q65-36 65.42-35.58 65.85-35.15 65.85-34.2L65.85-34.2 65.85-28.25Q65.85-27.3 65.42-26.88 65-26.45 64.05-26.45L64.05-26.45 52.4-26.45Q51.75-26.45 51.4-26.03 51.05-25.6 51.05-24.95L51.05-24.95Q51.05-24.3 51.4-23.85 51.75-23.4 52.4-23.35L52.4-23.35 59.85-22.35Q63.35-21.85 65.5-20.05 67.65-18.25 67.65-14.05L67.65-14.05 67.65-8.8Q67.65-4.55 64.87-2.27 62.1 0 57.3 0ZM89.55 0L89.55 0 73.75 0Q72.8 0 72.37-0.43 71.95-0.85 71.95-1.8L71.95-1.8 71.95-7.65Q71.95-8.6 72.37-9.03 72.8-9.45 73.75-9.45L73.75-9.45 87.2-9.45Q87.85-9.45 88.17-9.88 88.5-10.3 88.5-10.9L88.5-10.9Q88.5-11.75 88.17-12.15 87.85-12.55 87.2-12.6L87.2-12.6 79.7-13.65Q76.2-14.15 74.07-15.95 71.95-17.75 71.95-21.95L71.95-21.95 71.95-27.2Q71.95-31.45 74.7-33.73 77.45-36 82.3-36L82.3-36 96.3-36Q97.25-36 97.67-35.58 98.1-35.15 98.1-34.2L98.1-34.2 98.1-28.25Q98.1-27.3 97.67-26.88 97.25-26.45 96.3-26.45L96.3-26.45 84.65-26.45Q84-26.45 83.65-26.03 83.3-25.6 83.3-24.95L83.3-24.95Q83.3-24.3 83.65-23.85 84-23.4 84.65-23.35L84.65-23.35 92.1-22.35Q95.6-21.85 97.75-20.05 99.9-18.25 99.9-14.05L99.9-14.05 99.9-8.8Q99.9-4.55 97.12-2.27 94.35 0 89.55 0Z" opacity="1" transform="matrix(1,0,0,1,0,0)" fill="white" class="wordmark-text-0" id="SvgjsPath2312"></path></svg></g></svg></g></svg></g></svg></g></svg></g></svg></g></svg></g><g><path d="M245.816 0c68.262 0 123.6 55.338 123.6 123.6 0 68.262-55.338 123.6-123.6 123.6-47.95 0-89.523-27.305-110.019-67.214l4.647 0c20.14 37.558 59.773 63.1 105.372 63.1 65.99 0 119.486-53.496 119.486-119.486 0-65.99-53.496-119.486-119.486-119.486-45.599 0-85.232 25.542-105.372 63.1h-4.647c20.495-39.909 62.068-67.214 110.019-67.214z" fill="black" stroke="transparent"></path></g></svg></g><defs><mask></mask></defs></svg><rect width="395.52" height="247.2" fill="black" stroke="none" visibility="hidden"></rect></g></mask><linearGradient x1="0" x2="1" y1="0.548" y2="0.55" id="df147ba4-3400-4ad7-82df-95959c877834"><stop stop-color="#ff6cab" offset="0"></stop><stop stop-color="#7366ff" offset="1"></stop></linearGradient><rect width="395.52" height="247.20000000000002" fill="url(#df147ba4-3400-4ad7-82df-95959c877834)" mask="url(#aecd677a-c0c6-4213-9ced-f3d959e739f4)" data-fill-palette-color="primary"></rect><mask id="c6ac7c65-3b18-4319-b20f-4374252e1b2e"><g id="SvgjsG2338"><svg viewBox="0 0 395.52 247.2" height="247.2" width="395.52"><g><svg></svg></g><g><svg viewBox="0 0 395.52 247.2" height="247.2" width="395.52"><g transform="matrix(1,0,0,1,75.54432,77.9829499222395)"><svg viewBox="0 0 244.43135999999998 91.23410015552099" height="91.23410015552099" width="244.43135999999998"><g><svg viewBox="0 0 244.43135999999998 91.23410015552099" height="91.23410015552099" width="244.43135999999998"><g><svg viewBox="0 0 244.43135999999998 91.23410015552099" height="91.23410015552099" width="244.43135999999998"><g><svg viewBox="0 0 244.43135999999998 91.23410015552099" height="91.23410015552099" width="244.43135999999998"><g id="SvgjsG2337"><svg viewBox="0 0 244.43135999999998 91.23410015552099" height="91.23410015552099" width="244.43135999999998" id="SvgjsSvg2336"><g><svg viewBox="0 0 244.43135999999998 91.23410015552099" height="91.23410015552099" width="244.43135999999998"><g transform="matrix(1,0,0,1,0,0)"><svg width="244.43135999999998" viewBox="3.45 -36 96.45 36" height="91.23410015552099" data-palette-color="url(#df147ba4-3400-4ad7-82df-95959c877834)"></svg></g></svg></g></svg></g></svg></g></svg></g></svg></g></svg></g><g><path d="M245.816 0c68.262 0 123.6 55.338 123.6 123.6 0 68.262-55.338 123.6-123.6 123.6-47.95 0-89.523-27.305-110.019-67.214l4.647 0c20.14 37.558 59.773 63.1 105.372 63.1 65.99 0 119.486-53.496 119.486-119.486 0-65.99-53.496-119.486-119.486-119.486-45.599 0-85.232 25.542-105.372 63.1h-4.647c20.495-39.909 62.068-67.214 110.019-67.214z" fill="white" stroke="transparent"></path></g></svg></g><defs><mask></mask></defs><mask><g id="SvgjsG2335"><svg viewBox="0 0 395.52 247.2" height="247.2" width="395.52"><g><svg></svg></g><g><svg viewBox="0 0 395.52 247.2" height="247.2" width="395.52"><g transform="matrix(1,0,0,1,75.54432,77.9829499222395)"><svg viewBox="0 0 244.43135999999998 91.23410015552099" height="91.23410015552099" width="244.43135999999998"><g><svg viewBox="0 0 244.43135999999998 91.23410015552099" height="91.23410015552099" width="244.43135999999998"><g><svg viewBox="0 0 244.43135999999998 91.23410015552099" height="91.23410015552099" width="244.43135999999998"><g><svg viewBox="0 0 244.43135999999998 91.23410015552099" height="91.23410015552099" width="244.43135999999998"><g id="SvgjsG2334"><svg viewBox="0 0 244.43135999999998 91.23410015552099" height="91.23410015552099" width="244.43135999999998" id="SvgjsSvg2333"><g><svg viewBox="0 0 244.43135999999998 91.23410015552099" height="91.23410015552099" width="244.43135999999998"><g transform="matrix(1,0,0,1,0,0)"><svg width="244.43135999999998" viewBox="3.45 -36 96.45 36" height="91.23410015552099" data-palette-color="url(#df147ba4-3400-4ad7-82df-95959c877834)"><path d="M18.5-27L14.75-27 14.75-20.6 18.5-20.6Q19.8-20.6 20.25-21.28 20.7-21.95 20.7-22.95L20.7-22.95 20.7-24.65Q20.7-25.65 20.25-26.33 19.8-27 18.5-27L18.5-27ZM12.95 0L12.95 0 5.25 0Q4.3 0 3.88-0.43 3.45-0.85 3.45-1.8L3.45-1.8 3.45-34.2Q3.45-35.15 3.88-35.58 4.3-36 5.25-36L5.25-36 21.9-36Q27.5-36 29.63-33.68 31.75-31.35 31.75-27.65L31.75-27.65 31.75-25.35Q31.75-23.25 31.13-21.78 30.5-20.3 28.95-19.65L28.95-19.65Q31.65-19.35 33.33-17.45 35-15.55 35-12.4L35-12.4 35-1.8Q35-0.85 34.58-0.43 34.15 0 33.2 0L33.2 0 25.45 0Q24.5 0 24.08-0.43 23.65-0.85 23.65-1.8L23.65-1.8 23.65-9.45Q23.65-10.55 23.23-11.08 22.8-11.6 21.75-11.6L21.75-11.6 14.75-11.6 14.75-1.8Q14.75-0.85 14.33-0.43 13.9 0 12.95 0ZM57.3 0L57.3 0 41.5 0Q40.55 0 40.12-0.43 39.7-0.85 39.7-1.8L39.7-1.8 39.7-7.65Q39.7-8.6 40.12-9.03 40.55-9.45 41.5-9.45L41.5-9.45 54.95-9.45Q55.6-9.45 55.92-9.88 56.25-10.3 56.25-10.9L56.25-10.9Q56.25-11.75 55.92-12.15 55.6-12.55 54.95-12.6L54.95-12.6 47.45-13.65Q43.95-14.15 41.82-15.95 39.7-17.75 39.7-21.95L39.7-21.95 39.7-27.2Q39.7-31.45 42.45-33.73 45.2-36 50.05-36L50.05-36 64.05-36Q65-36 65.42-35.58 65.85-35.15 65.85-34.2L65.85-34.2 65.85-28.25Q65.85-27.3 65.42-26.88 65-26.45 64.05-26.45L64.05-26.45 52.4-26.45Q51.75-26.45 51.4-26.03 51.05-25.6 51.05-24.95L51.05-24.95Q51.05-24.3 51.4-23.85 51.75-23.4 52.4-23.35L52.4-23.35 59.85-22.35Q63.35-21.85 65.5-20.05 67.65-18.25 67.65-14.05L67.65-14.05 67.65-8.8Q67.65-4.55 64.87-2.27 62.1 0 57.3 0ZM89.55 0L89.55 0 73.75 0Q72.8 0 72.37-0.43 71.95-0.85 71.95-1.8L71.95-1.8 71.95-7.65Q71.95-8.6 72.37-9.03 72.8-9.45 73.75-9.45L73.75-9.45 87.2-9.45Q87.85-9.45 88.17-9.88 88.5-10.3 88.5-10.9L88.5-10.9Q88.5-11.75 88.17-12.15 87.85-12.55 87.2-12.6L87.2-12.6 79.7-13.65Q76.2-14.15 74.07-15.95 71.95-17.75 71.95-21.95L71.95-21.95 71.95-27.2Q71.95-31.45 74.7-33.73 77.45-36 82.3-36L82.3-36 96.3-36Q97.25-36 97.67-35.58 98.1-35.15 98.1-34.2L98.1-34.2 98.1-28.25Q98.1-27.3 97.67-26.88 97.25-26.45 96.3-26.45L96.3-26.45 84.65-26.45Q84-26.45 83.65-26.03 83.3-25.6 83.3-24.95L83.3-24.95Q83.3-24.3 83.65-23.85 84-23.4 84.65-23.35L84.65-23.35 92.1-22.35Q95.6-21.85 97.75-20.05 99.9-18.25 99.9-14.05L99.9-14.05 99.9-8.8Q99.9-4.55 97.12-2.27 94.35 0 89.55 0Z" opacity="1" transform="matrix(1,0,0,1,0,0)" fill="black" class="wordmark-text-0" id="SvgjsPath2332"></path></svg></g></svg></g></svg></g></svg></g></svg></g></svg></g></svg></g><g><path d="M245.816 0c68.262 0 123.6 55.338 123.6 123.6 0 68.262-55.338 123.6-123.6 123.6-47.95 0-89.523-27.305-110.019-67.214l4.647 0c20.14 37.558 59.773 63.1 105.372 63.1 65.99 0 119.486-53.496 119.486-119.486 0-65.99-53.496-119.486-119.486-119.486-45.599 0-85.232 25.542-105.372 63.1h-4.647c20.495-39.909 62.068-67.214 110.019-67.214z" fill="black" stroke="transparent"></path></g></svg></g><defs><mask></mask></defs></svg><rect width="395.52" height="247.2" fill="black" stroke="none" visibility="hidden"></rect></g></mask></svg><rect width="395.52" height="247.2" fill="black" stroke="none" visibility="hidden"></rect></g></mask><linearGradient x1="0" x2="1" y1="0.548" y2="0.55" id="9b0369da-2e2b-4e9b-84d7-368a12c1c48b"><stop stop-color="#ff6cab" offset="0"></stop><stop stop-color="#7366ff" offset="1"></stop></linearGradient></svg><rect width="395.52" height="247.2" fill="none" stroke="none" visibility="hidden"></rect></g></svg></g></svg>