<svg xmlns="http://www.w3.org/2000/svg" viewBox="0 0 800 500">
  <defs><linearGradient id="g" x1="0" y1="0" x2="1" y2="1"><stop stop-color="#070707"/><stop offset="1" stop-color="#1a0204"/></linearGradient><linearGradient id="r"><stop stop-color="#ff334b"/><stop offset="1" stop-color="#8d0013"/></linearGradient></defs>
  <rect width="800" height="500" fill="url(#g)"/><path d="M0 400 800 160v340H0z" fill="#100105"/><g opacity=".24" stroke="#ff2745"><path d="M-30 440 830 180M-20 490 840 230M120 520 650 0"/></g>
  <rect x="56" y="48" width="688" height="404" rx="25" fill="#09090b" stroke="#4a1720"/><circle cx="91" cy="82" r="6" fill="#ff3049"/><circle cx="113" cy="82" r="6" fill="#492028"/><circle cx="135" cy="82" r="6" fill="#492028"/>
  <text x="400" y="210" text-anchor="middle" fill="white" font-family="Arial Black,Arial" font-size="62" font-weight="900">ALL OR NOTHING</text><text x="400" y="252" text-anchor="middle" fill="#ff334b" font-family="Arial" font-size="18" letter-spacing="8">COMPETE · CLIMB · CONQUER</text>
  <g transform="translate(122 312)"><rect width="170" height="84" rx="13" fill="#141416" stroke="#372127"/><text x="18" y="31" fill="#9c8e91" font-family="Arial" font-size="12">COMMUNITY</text><text x="18" y="61" fill="white" font-family="Arial" font-size="24" font-weight="700">~40 subscribers</text></g>
  <g transform="translate(315 312)"><rect width="170" height="84" rx="13" fill="#141416" stroke="#372127"/><text x="18" y="31" fill="#9c8e91" font-family="Arial" font-size="12">MARKETPLACE</text><text x="18" y="61" fill="white" font-family="Arial" font-size="24" font-weight="700">Live coaching</text></g>
  <g transform="translate(508 312)"><rect width="170" height="84" rx="13" fill="#141416" stroke="#372127"/><text x="18" y="31" fill="#9c8e91" font-family="Arial" font-size="12">PLATFORM</text><text x="18" y="61" fill="white" font-family="Arial" font-size="24" font-weight="700">3 games</text></g>
</svg>
