<svg xmlns="http://www.w3.org/2000/svg" viewBox="0 0 800 500">
  <defs><linearGradient id="bsbg" x1="0" y1="0" x2="1" y2="1"><stop stop-color="#07132b"/><stop offset="1" stop-color="#123a5c"/></linearGradient><linearGradient id="bsacc" x1="0" y1="0" x2="1" y2="0"><stop stop-color="#38bdf8"/><stop offset="1" stop-color="#22d3a7"/></linearGradient></defs>
  <rect width="800" height="500" fill="url(#bsbg)"/><circle cx="700" cy="60" r="180" fill="#38bdf8" opacity=".08"/><circle cx="90" cy="470" r="200" fill="#22d3a7" opacity=".06"/>
  <rect x="252" y="34" width="296" height="432" rx="34" fill="#0b1220" stroke="#2a3b57" stroke-width="2"/>
  <rect x="352" y="46" width="96" height="16" rx="8" fill="#1b2740"/>
  <text x="278" y="112" fill="#7f9ac2" font-family="Arial" font-size="11" letter-spacing="3">SWIFTUI · iOS</text>
  <text x="278" y="146" fill="#ffffff" font-family="Arial" font-size="27" font-weight="700">Bookshelf</text>
  <text x="278" y="170" fill="#8fa8cb" font-family="Arial" font-size="13">Lottery inventory &amp; shift accounting</text>
  <rect x="278" y="192" width="244" height="62" rx="14" fill="#132540" stroke="#22d3a7" stroke-width="1.5"/>
  <text x="296" y="216" fill="#22d3a7" font-family="Arial" font-size="10" letter-spacing="2">ACTIVE SHIFT</text>
  <text x="296" y="240" fill="#ffffff" font-family="Arial" font-size="17" font-weight="700">Reconciled · $1,284.50</text>
  <g font-family="Arial">
    <rect x="278" y="268" width="244" height="46" rx="12" fill="#101c31"/><text x="296" y="288" fill="#cfe0f5" font-size="13">Book #4412 · Scratch $5</text><text x="296" y="305" fill="#6f88ab" font-size="11">BLE scan · 18 tickets left</text>
    <rect x="278" y="322" width="244" height="46" rx="12" fill="#101c31"/><text x="296" y="342" fill="#cfe0f5" font-size="13">Book #7730 · Scratch $10</text><text x="296" y="359" fill="#6f88ab" font-size="11">Camera scan · swapped in</text>
    <rect x="278" y="376" width="244" height="46" rx="12" fill="#101c31"/><text x="296" y="396" fill="#cfe0f5" font-size="13">Book #2081 · Scratch $2</text><text x="296" y="413" fill="#6f88ab" font-size="11">HID keyboard · sold out</text>
  </g>
  <g font-family="Arial">
    <rect x="40" y="150" width="180" height="80" rx="16" fill="#0d1c33" stroke="#2a3b57"/><text x="60" y="180" fill="#38bdf8" font-size="10" letter-spacing="2">POSTGRESQL RLS</text><text x="60" y="209" fill="#ffffff" font-size="22" font-weight="700">16 tables</text>
    <rect x="40" y="250" width="180" height="80" rx="16" fill="#0d1c33" stroke="#2a3b57"/><text x="60" y="280" fill="#22d3a7" font-size="10" letter-spacing="2">ACCESS CONTROL</text><text x="60" y="309" fill="#ffffff" font-size="19" font-weight="700">Owner / Clerk</text>
    <rect x="580" y="150" width="180" height="80" rx="16" fill="#0d1c33" stroke="#2a3b57"/><text x="600" y="180" fill="#38bdf8" font-size="10" letter-spacing="2">MULTI-TENANT</text><text x="600" y="209" fill="#ffffff" font-size="19" font-weight="700">Many stores</text>
    <rect x="580" y="250" width="180" height="80" rx="16" fill="#0d1c33" stroke="#2a3b57"/><text x="600" y="280" fill="#22d3a7" font-size="10" letter-spacing="2">BARCODE INPUT</text><text x="600" y="309" fill="#ffffff" font-size="19" font-weight="700">BLE · HID · Cam</text>
  </g>
  <rect x="40" y="40" width="180" height="40" rx="12" fill="url(#bsacc)" opacity=".9"/><text x="130" y="66" text-anchor="middle" fill="#04121f" font-family="Arial" font-size="14" font-weight="700">Swift + Supabase</text>
</svg>
